<?xml version="1.0" encoding="utf-8"?>
<!-- Generator: Adobe Illustrator 16.0.0, SVG Export Plug-In . SVG Version: 6.00 Build 0)  -->
<!DOCTYPE svg PUBLIC "-//W3C//DTD SVG 1.1//EN" "http://www.w3.org/Graphics/SVG/1.1/DTD/svg11.dtd">
<svg version="1.1" id="Layer_1" xmlns="http://www.w3.org/2000/svg" xmlns:xlink="http://www.w3.org/1999/xlink" x="0px" y="0px"
	 width="204.388px" height="88.973px" viewBox="24.562 -26.21 204.388 88.973"
	 enable-background="new 24.562 -26.21 204.388 88.973" xml:space="preserve">
<path fill="#968172" d="M143.193-26.21h-32.87c-1.198,0-2.165,1.031-2.165,2.306V4.566c0,1.277,0.967,2.308,2.165,2.308h32.87
	c1.192,0,2.16-1.031,2.16-2.308v-28.469C145.353-25.178,144.385-26.21,143.193-26.21z M128.507-1.39h-4.164v-6.973
	c0,0,0.201-1.355-1.228-1.355h-5.12v4.04c0,0,0.049,3.863-3.11,4.667h-0.328c0,0,0.601-1.081,0.601-3.386v-12.193
	c0-1.481-1.328-1.481-1.328-1.481v-0.25h4.165v7.376h6.348v-3.036c0-1.53,0-4.34,0-4.34h2.834c0,0,0,0.954,0,3.086
	c0,0.676,0,12.116,0,12.116c0,1.48,1.33,1.48,1.33,1.48V-1.39z M139.654-1.128c-1.354,0-3.257-0.454-4.711-2.033l-6.219-6.72
	c0,0,4.737,0.427,4.737-3.937c0-1.706-0.897-3.46-3.181-3.46h-1.649v-1c1.091,0,2.015,0,2.227,0c3.205,0,5.64,1.177,5.64,4.261
	c0,2.832-2.181,4.436-3.734,4.741l6.917,7.797L139.654-1.128z"/>
<g>
	<path fill="#635D59" d="M36.217,49.552c0.057,0,0.114-0.037,0.114-0.133v-0.398c0-2.885,0-3.417-0.038-4.024
		c-0.038-0.646-0.19-0.948-0.816-1.082c-0.152-0.038-0.475-0.057-0.74-0.057c-0.208,0-0.323-0.038-0.323-0.171
		s0.133-0.171,0.399-0.171c1.025,0,2.221,0.058,2.733,0.058c0.456,0,1.651-0.058,2.392-0.058c0.266,0,0.398,0.038,0.398,0.171
		s-0.114,0.171-0.341,0.171c-0.152,0-0.323,0.019-0.551,0.057c-0.513,0.095-0.664,0.418-0.702,1.082
		c-0.038,0.607-0.038,1.14-0.038,4.024v3.341c0,1.746,0,3.246,0.095,4.062c0.057,0.532,0.171,0.949,0.74,1.025
		c0.266,0.038,0.684,0.076,0.968,0.076c0.209,0,0.304,0.057,0.304,0.152c0,0.133-0.152,0.189-0.379,0.189
		c-1.234,0-2.43-0.057-2.961-0.057c-0.437,0-1.632,0.057-2.373,0.057c-0.266,0-0.399-0.057-0.399-0.189
		c0-0.096,0.076-0.152,0.304-0.152c0.285,0,0.513-0.038,0.684-0.076c0.379-0.076,0.475-0.493,0.55-1.044
		c0.095-0.797,0.095-2.297,0.095-4.043v-1.671c0-0.076-0.057-0.113-0.114-0.113h-7.251c-0.057,0-0.114,0.019-0.114,0.113v1.671
		c0,1.746,0,3.246,0.095,4.062c0.057,0.532,0.171,0.949,0.74,1.025c0.266,0.038,0.684,0.076,0.968,0.076
		c0.209,0,0.304,0.057,0.304,0.152c0,0.133-0.152,0.189-0.379,0.189c-1.234,0-2.43-0.057-2.961-0.057
		c-0.437,0-1.632,0.057-2.392,0.057c-0.247,0-0.38-0.057-0.38-0.189c0-0.096,0.076-0.152,0.304-0.152
		c0.285,0,0.513-0.038,0.684-0.076c0.379-0.076,0.475-0.493,0.55-1.044c0.095-0.797,0.095-2.297,0.095-4.043v-3.341
		c0-2.885,0-3.417-0.038-4.024c-0.038-0.646-0.19-0.948-0.816-1.082c-0.152-0.038-0.475-0.057-0.74-0.057
		c-0.209,0-0.323-0.038-0.323-0.171s0.133-0.171,0.398-0.171c1.025,0,2.221,0.058,2.733,0.058c0.456,0,1.652-0.058,2.392-0.058
		c0.266,0,0.398,0.038,0.398,0.171s-0.114,0.171-0.342,0.171c-0.152,0-0.323,0.019-0.55,0.057c-0.513,0.095-0.665,0.418-0.702,1.082
		c-0.038,0.607-0.038,1.14-0.038,4.024v0.398c0,0.096,0.057,0.133,0.114,0.133H36.217z"/>
	<path fill="#635D59" d="M45.69,52.911c-0.095,0-0.133,0.039-0.171,0.152l-1.025,2.715c-0.189,0.475-0.285,0.93-0.285,1.158
		c0,0.341,0.171,0.588,0.759,0.588h0.285c0.228,0,0.285,0.038,0.285,0.152c0,0.151-0.114,0.189-0.322,0.189
		c-0.607,0-1.424-0.057-2.012-0.057c-0.209,0-1.253,0.057-2.24,0.057c-0.247,0-0.361-0.038-0.361-0.189
		c0-0.114,0.076-0.152,0.228-0.152c0.17,0,0.437-0.02,0.588-0.038c0.873-0.114,1.234-0.759,1.613-1.708l4.765-11.921
		c0.228-0.551,0.341-0.759,0.531-0.759c0.171,0,0.285,0.17,0.475,0.607c0.456,1.043,3.493,8.788,4.708,11.674
		c0.721,1.708,1.272,1.974,1.67,2.068c0.285,0.057,0.569,0.076,0.797,0.076c0.152,0,0.247,0.02,0.247,0.152
		c0,0.151-0.171,0.189-0.873,0.189c-0.684,0-2.069,0-3.587-0.038c-0.342-0.019-0.57-0.019-0.57-0.151
		c0-0.114,0.076-0.152,0.266-0.172c0.133-0.037,0.266-0.209,0.17-0.436l-1.519-4.025c-0.038-0.094-0.095-0.133-0.189-0.133H45.69z
		 M49.562,51.963c0.095,0,0.114-0.058,0.095-0.114l-1.708-4.688c-0.019-0.075-0.038-0.171-0.095-0.171
		c-0.057,0-0.095,0.096-0.114,0.171l-1.746,4.669c-0.019,0.076,0,0.134,0.076,0.134H49.562z"/>
	<path fill="#635D59" d="M59.281,55.284c0.038,1.48,0.285,1.975,0.664,2.107c0.323,0.113,0.684,0.133,0.987,0.133
		c0.208,0,0.322,0.038,0.322,0.152c0,0.151-0.17,0.189-0.437,0.189c-1.233,0-1.993-0.057-2.354-0.057
		c-0.171,0-1.063,0.057-2.05,0.057c-0.247,0-0.417-0.02-0.417-0.189c0-0.114,0.114-0.152,0.304-0.152
		c0.247,0,0.588-0.02,0.854-0.095c0.493-0.152,0.569-0.702,0.588-2.354l0.17-11.236c0-0.38,0.057-0.646,0.247-0.646
		c0.209,0,0.379,0.248,0.702,0.589c0.228,0.247,3.113,3.341,5.885,6.093c1.291,1.291,3.853,4.025,4.176,4.328h0.095l-0.189-8.522
		c-0.019-1.158-0.19-1.519-0.646-1.708c-0.285-0.114-0.74-0.114-1.006-0.114c-0.228,0-0.304-0.058-0.304-0.171
		c0-0.152,0.208-0.171,0.493-0.171c0.987,0,1.898,0.058,2.297,0.058c0.209,0,0.93-0.058,1.86-0.058c0.247,0,0.437,0.019,0.437,0.171
		c0,0.113-0.114,0.171-0.342,0.171c-0.189,0-0.342,0-0.569,0.057c-0.531,0.152-0.684,0.551-0.702,1.614l-0.209,11.977
		c0,0.418-0.076,0.589-0.247,0.589c-0.209,0-0.437-0.209-0.646-0.417c-1.196-1.14-3.625-3.626-5.6-5.581
		c-2.069-2.05-4.176-4.423-4.518-4.784h-0.057L59.281,55.284z"/>
	<path fill="#635D59" d="M74.011,57.638c-0.304-0.133-0.36-0.227-0.36-0.645c0-1.045,0.076-2.184,0.095-2.486
		c0.019-0.285,0.076-0.494,0.228-0.494c0.171,0,0.189,0.171,0.189,0.322c0,0.247,0.076,0.646,0.171,0.969
		c0.418,1.404,1.538,1.917,2.714,1.917c1.708,0,2.544-1.158,2.544-2.164c0-0.931-0.285-1.804-1.86-3.037l-0.873-0.683
		c-2.088-1.633-2.81-2.962-2.81-4.5c0-2.088,1.747-3.587,4.385-3.587c1.234,0,2.031,0.19,2.525,0.323
		c0.171,0.037,0.266,0.094,0.266,0.227c0,0.248-0.076,0.798-0.076,2.278c0,0.418-0.057,0.569-0.208,0.569
		c-0.133,0-0.19-0.113-0.19-0.342c0-0.17-0.095-0.759-0.494-1.252c-0.285-0.361-0.835-0.931-2.069-0.931
		c-1.405,0-2.259,0.816-2.259,1.955c0,0.873,0.437,1.538,2.012,2.733l0.532,0.398c2.297,1.728,3.113,3.037,3.113,4.841
		c0,1.101-0.417,2.411-1.784,3.303c-0.949,0.607-2.012,0.778-3.018,0.778C75.682,58.132,74.828,57.999,74.011,57.638z"/>
	<path fill="#635D59" d="M91.798,49.021c0-2.885,0-3.417-0.038-4.024c-0.038-0.646-0.19-0.948-0.816-1.082
		c-0.152-0.038-0.475-0.057-0.74-0.057c-0.209,0-0.323-0.038-0.323-0.171s0.133-0.171,0.417-0.171c1.006,0,2.202,0.058,2.601,0.058
		c0.646,0,2.088-0.058,2.677-0.058c1.196,0,2.467,0.114,3.493,0.816c0.531,0.36,1.291,1.329,1.291,2.601
		c0,1.404-0.588,2.695-2.505,4.252c1.689,2.126,2.999,3.815,4.119,4.992c1.062,1.101,1.841,1.234,2.126,1.291
		c0.208,0.037,0.379,0.057,0.531,0.057s0.228,0.057,0.228,0.152c0,0.151-0.133,0.189-0.36,0.189h-1.803
		c-1.063,0-1.538-0.096-2.031-0.361c-0.816-0.436-1.538-1.328-2.601-2.79c-0.759-1.044-1.632-2.335-1.879-2.619
		c-0.095-0.114-0.209-0.133-0.342-0.133l-1.651-0.038c-0.095,0-0.152,0.038-0.152,0.152v0.266c0,1.765,0,3.265,0.095,4.062
		c0.057,0.551,0.171,0.968,0.74,1.044c0.285,0.038,0.703,0.076,0.93,0.076c0.152,0,0.228,0.057,0.228,0.152
		c0,0.133-0.133,0.189-0.38,0.189c-1.101,0-2.505-0.057-2.79-0.057c-0.361,0-1.557,0.057-2.316,0.057
		c-0.247,0-0.38-0.057-0.38-0.189c0-0.096,0.076-0.152,0.304-0.152c0.285,0,0.513-0.038,0.684-0.076
		c0.379-0.076,0.475-0.493,0.55-1.044c0.095-0.797,0.095-2.297,0.095-4.043V49.021z M94.038,50.521c0,0.209,0.038,0.284,0.171,0.342
		c0.398,0.133,0.968,0.189,1.442,0.189c0.759,0,1.006-0.076,1.348-0.322c0.569-0.418,1.12-1.291,1.12-2.848
		c0-2.695-1.784-3.475-2.904-3.475c-0.475,0-0.816,0.02-1.006,0.076c-0.133,0.038-0.171,0.114-0.171,0.266V50.521z"/>
	<path fill="#635D59" d="M107.744,52.911c-0.095,0-0.133,0.039-0.171,0.152l-1.025,2.715c-0.189,0.475-0.285,0.93-0.285,1.158
		c0,0.341,0.171,0.588,0.759,0.588h0.285c0.228,0,0.285,0.038,0.285,0.152c0,0.151-0.114,0.189-0.322,0.189
		c-0.607,0-1.424-0.057-2.012-0.057c-0.209,0-1.253,0.057-2.24,0.057c-0.247,0-0.361-0.038-0.361-0.189
		c0-0.114,0.076-0.152,0.228-0.152c0.17,0,0.437-0.02,0.588-0.038c0.873-0.114,1.234-0.759,1.613-1.708l4.765-11.921
		c0.228-0.551,0.341-0.759,0.531-0.759c0.171,0,0.285,0.17,0.475,0.607c0.456,1.043,3.493,8.788,4.708,11.674
		c0.721,1.708,1.272,1.974,1.67,2.068c0.285,0.057,0.569,0.076,0.797,0.076c0.152,0,0.247,0.02,0.247,0.152
		c0,0.151-0.171,0.189-0.873,0.189c-0.684,0-2.069,0-3.587-0.038c-0.342-0.019-0.57-0.019-0.57-0.151
		c0-0.114,0.076-0.152,0.266-0.172c0.133-0.037,0.266-0.209,0.17-0.436l-1.519-4.025c-0.038-0.094-0.095-0.133-0.189-0.133H107.744z
		 M111.616,51.963c0.095,0,0.114-0.058,0.095-0.114l-1.708-4.688c-0.019-0.075-0.038-0.171-0.095-0.171
		c-0.057,0-0.095,0.096-0.114,0.171l-1.746,4.669c-0.019,0.076,0,0.134,0.076,0.134H111.616z"/>
	<path fill="#635D59" d="M121.791,52.911c-0.095,0-0.133,0.039-0.17,0.152l-1.025,2.715c-0.189,0.475-0.285,0.93-0.285,1.158
		c0,0.341,0.171,0.588,0.759,0.588h0.285c0.228,0,0.285,0.038,0.285,0.152c0,0.151-0.114,0.189-0.323,0.189
		c-0.607,0-1.424-0.057-2.012-0.057c-0.209,0-1.253,0.057-2.24,0.057c-0.247,0-0.361-0.038-0.361-0.189
		c0-0.114,0.076-0.152,0.228-0.152c0.171,0,0.437-0.02,0.589-0.038c0.873-0.114,1.233-0.759,1.613-1.708l4.765-11.921
		c0.228-0.551,0.341-0.759,0.531-0.759c0.171,0,0.285,0.17,0.475,0.607c0.456,1.043,3.493,8.788,4.708,11.674
		c0.721,1.708,1.271,1.974,1.67,2.068c0.285,0.057,0.569,0.076,0.797,0.076c0.152,0,0.247,0.02,0.247,0.152
		c0,0.151-0.171,0.189-0.873,0.189c-0.684,0-2.069,0-3.588-0.038c-0.341-0.019-0.569-0.019-0.569-0.151
		c0-0.114,0.076-0.152,0.266-0.172c0.133-0.037,0.266-0.209,0.171-0.436l-1.519-4.025c-0.037-0.094-0.095-0.133-0.189-0.133H121.791
		z M125.663,51.963c0.096,0,0.114-0.058,0.096-0.114l-1.708-4.688c-0.019-0.075-0.038-0.171-0.095-0.171
		c-0.057,0-0.095,0.096-0.114,0.171l-1.747,4.669c-0.019,0.076,0,0.134,0.076,0.134H125.663z"/>
	<path fill="#635D59" d="M134.321,49.021c0-2.885,0-3.417-0.038-4.024c-0.038-0.646-0.229-0.968-0.646-1.063
		c-0.209-0.057-0.456-0.075-0.684-0.075c-0.189,0-0.304-0.038-0.304-0.19c0-0.113,0.152-0.151,0.456-0.151
		c0.722,0,1.917,0.058,2.468,0.058c0.475,0,1.594-0.058,2.315-0.058c0.247,0,0.398,0.038,0.398,0.151c0,0.152-0.114,0.19-0.304,0.19
		s-0.342,0.019-0.569,0.057c-0.513,0.095-0.664,0.418-0.702,1.082c-0.038,0.607-0.038,1.14-0.038,4.024v3.341
		c0,1.841,0,3.341,0.076,4.157c0.057,0.512,0.189,0.854,0.759,0.93c0.266,0.038,0.684,0.076,0.969,0.076
		c0.209,0,0.303,0.057,0.303,0.152c0,0.133-0.151,0.189-0.36,0.189c-1.253,0-2.448-0.057-2.961-0.057
		c-0.437,0-1.632,0.057-2.392,0.057c-0.247,0-0.38-0.057-0.38-0.189c0-0.096,0.076-0.152,0.304-0.152
		c0.285,0,0.513-0.038,0.684-0.076c0.379-0.076,0.493-0.398,0.551-0.949c0.095-0.797,0.095-2.297,0.095-4.138V49.021z"/>
	<path fill="#635D59" d="M142.141,49.021c0-2.885,0-3.417-0.038-4.024c-0.037-0.646-0.189-0.948-0.816-1.082
		c-0.151-0.038-0.475-0.057-0.74-0.057c-0.209,0-0.322-0.038-0.322-0.171s0.133-0.171,0.418-0.171c1.006,0,2.201,0.058,2.695,0.058
		c0.455,0,1.651-0.058,2.392-0.058c0.266,0,0.398,0.038,0.398,0.171s-0.114,0.171-0.342,0.171c-0.208,0-0.322,0.019-0.55,0.057
		c-0.513,0.095-0.665,0.418-0.703,1.082c-0.037,0.607-0.037,1.14-0.037,4.024v3.512c0,0.816,0.057,1.727,0.057,2.676
		c0,1.082-0.076,2.297-0.455,3.36c-0.399,1.157-1.405,2.468-3.228,3.587c-0.247,0.152-0.551,0.305-0.949,0.494
		c-0.133,0.076-0.284,0.113-0.38,0.113c-0.076,0-0.151-0.057-0.151-0.151s0.095-0.171,0.417-0.341
		c0.247-0.134,0.531-0.342,0.912-0.723c1.441-1.461,1.423-3.359,1.423-7.08V49.021z"/>
	<path fill="#635D59" d="M150.361,43.592c0.057-0.323,0.17-0.493,0.322-0.493s0.266,0.094,0.512,0.588l5.183,10.706l5.163-10.839
		c0.152-0.304,0.247-0.455,0.418-0.455c0.17,0,0.285,0.189,0.342,0.588l1.727,11.73c0.172,1.196,0.361,1.746,0.931,1.918
		c0.55,0.17,0.931,0.189,1.177,0.189c0.171,0,0.304,0.02,0.304,0.133c0,0.152-0.228,0.209-0.493,0.209
		c-0.475,0-3.094-0.057-3.854-0.114c-0.437-0.038-0.551-0.095-0.551-0.208c0-0.096,0.076-0.152,0.209-0.209
		c0.113-0.039,0.171-0.285,0.095-0.816l-1.139-8.353h-0.076l-4.138,8.618c-0.438,0.893-0.531,1.062-0.703,1.062
		c-0.17,0-0.36-0.379-0.664-0.949c-0.455-0.873-1.955-3.777-2.183-4.309c-0.171-0.398-1.31-2.79-1.974-4.214h-0.076l-0.987,7.555
		c-0.038,0.342-0.058,0.589-0.058,0.893c0,0.36,0.248,0.531,0.57,0.607c0.342,0.075,0.607,0.095,0.797,0.095
		c0.152,0,0.285,0.038,0.285,0.133c0,0.171-0.171,0.209-0.456,0.209c-0.797,0-1.651-0.057-1.993-0.057
		c-0.36,0-1.271,0.057-1.879,0.057c-0.189,0-0.342-0.038-0.342-0.209c0-0.095,0.113-0.133,0.304-0.133c0.151,0,0.284,0,0.569-0.057
		c0.531-0.114,0.684-0.854,0.778-1.5L150.361,43.592z"/>
	<path fill="#635D59" d="M170.406,52.911c-0.095,0-0.134,0.039-0.171,0.152l-1.025,2.715c-0.189,0.475-0.285,0.93-0.285,1.158
		c0,0.341,0.172,0.588,0.76,0.588h0.285c0.228,0,0.284,0.038,0.284,0.152c0,0.151-0.114,0.189-0.322,0.189
		c-0.607,0-1.424-0.057-2.013-0.057c-0.209,0-1.252,0.057-2.239,0.057c-0.247,0-0.36-0.038-0.36-0.189
		c0-0.114,0.075-0.152,0.228-0.152c0.171,0,0.437-0.02,0.589-0.038c0.873-0.114,1.233-0.759,1.613-1.708l4.764-11.921
		c0.229-0.551,0.342-0.759,0.531-0.759c0.172,0,0.285,0.17,0.475,0.607c0.456,1.043,3.493,8.788,4.708,11.674
		c0.722,1.708,1.272,1.974,1.671,2.068c0.284,0.057,0.568,0.076,0.797,0.076c0.152,0,0.246,0.02,0.246,0.152
		c0,0.151-0.17,0.189-0.873,0.189c-0.684,0-2.068,0-3.587-0.038c-0.342-0.019-0.569-0.019-0.569-0.151
		c0-0.114,0.076-0.152,0.266-0.172c0.133-0.037,0.266-0.209,0.17-0.436l-1.518-4.025c-0.038-0.094-0.096-0.133-0.189-0.133H170.406z
		 M174.279,51.963c0.095,0,0.113-0.058,0.095-0.114l-1.708-4.688c-0.02-0.075-0.038-0.171-0.096-0.171
		c-0.057,0-0.094,0.096-0.113,0.171l-1.746,4.669c-0.02,0.076,0,0.134,0.076,0.134H174.279z"/>
	<path fill="#635D59" d="M184.871,49.856h0.095c0.646-0.702,3.417-3.53,3.968-4.176c0.531-0.626,0.948-1.101,0.948-1.424
		c0-0.208-0.075-0.342-0.266-0.38c-0.17-0.037-0.246-0.076-0.246-0.189c0-0.133,0.095-0.171,0.304-0.171
		c0.398,0,1.442,0.058,1.955,0.058c0.589,0,1.632-0.058,2.221-0.058c0.19,0,0.323,0.038,0.323,0.171s-0.096,0.171-0.285,0.171
		c-0.266,0-0.74,0.075-1.102,0.209c-0.588,0.228-1.233,0.626-2.049,1.423c-0.589,0.57-3.455,3.418-4.101,4.101
		c0.683,0.892,4.403,4.897,5.144,5.6c0.836,0.798,1.689,1.651,2.715,2.05c0.569,0.229,0.949,0.285,1.177,0.285
		c0.133,0,0.247,0.038,0.247,0.152c0,0.133-0.096,0.189-0.456,0.189h-1.651c-0.569,0-0.911,0-1.31-0.038
		c-1.024-0.095-1.538-0.513-2.354-1.233c-0.835-0.74-4.575-5.125-4.974-5.676l-0.209-0.285h-0.095v1.728
		c0,1.746,0,3.246,0.058,4.062c0.037,0.532,0.208,0.949,0.683,1.025c0.267,0.038,0.684,0.076,0.931,0.076
		c0.151,0,0.246,0.057,0.246,0.152c0,0.133-0.151,0.189-0.36,0.189c-1.063,0-2.259-0.057-2.733-0.057
		c-0.437,0-1.633,0.057-2.392,0.057c-0.247,0-0.38-0.057-0.38-0.189c0-0.096,0.076-0.152,0.304-0.152
		c0.284,0,0.513-0.038,0.684-0.076c0.38-0.076,0.475-0.493,0.55-1.044c0.096-0.797,0.096-2.297,0.096-4.043v-3.341
		c0-2.885,0-3.417-0.038-4.024c-0.038-0.646-0.19-0.948-0.816-1.082c-0.151-0.038-0.475-0.057-0.74-0.057
		c-0.209,0-0.323-0.038-0.323-0.171s0.133-0.171,0.418-0.171c1.006,0,2.202,0.058,2.658,0.058c0.455,0,1.65-0.058,2.297-0.058
		c0.266,0,0.398,0.038,0.398,0.171s-0.114,0.171-0.266,0.171c-0.19,0-0.305,0.019-0.532,0.057c-0.513,0.095-0.664,0.418-0.702,1.082
		c-0.038,0.607-0.038,1.14-0.038,4.024V49.856z"/>
	<path fill="#635D59" d="M197.514,49.021c0-2.885,0-3.417-0.038-4.024c-0.038-0.646-0.189-0.948-0.816-1.082
		c-0.152-0.038-0.475-0.057-0.74-0.057c-0.209,0-0.322-0.038-0.322-0.171s0.133-0.171,0.417-0.171c0.513,0,1.063,0.019,1.538,0.019
		c0.493,0.02,0.93,0.039,1.195,0.039c0.607,0,4.385,0,4.746-0.02c0.36-0.038,0.664-0.076,0.816-0.113
		c0.094-0.02,0.208-0.076,0.303-0.076c0.096,0,0.114,0.076,0.114,0.17c0,0.133-0.095,0.361-0.151,1.234
		c-0.02,0.189-0.058,1.025-0.096,1.253c-0.019,0.095-0.057,0.208-0.189,0.208s-0.171-0.094-0.171-0.266
		c0-0.133-0.019-0.455-0.114-0.683c-0.133-0.342-0.322-0.569-1.271-0.684c-0.322-0.038-2.316-0.076-2.695-0.076
		c-0.095,0-0.133,0.058-0.133,0.19v4.803c0,0.133,0.02,0.208,0.133,0.208c0.418,0,2.601,0,3.037-0.038
		c0.455-0.037,0.74-0.095,0.911-0.285c0.133-0.151,0.209-0.246,0.304-0.246c0.076,0,0.133,0.038,0.133,0.152
		c0,0.113-0.076,0.417-0.152,1.385c-0.019,0.38-0.075,1.139-0.075,1.272c0,0.151,0,0.36-0.171,0.36
		c-0.133,0-0.171-0.076-0.171-0.171c-0.019-0.189-0.019-0.437-0.076-0.683c-0.095-0.381-0.36-0.665-1.063-0.74
		c-0.359-0.039-2.239-0.058-2.695-0.058c-0.094,0-0.113,0.076-0.113,0.19v1.499c0,0.646-0.02,2.392,0,2.942
		c0.038,1.31,0.342,1.594,2.277,1.594c0.494,0,1.291,0,1.785-0.228c0.493-0.228,0.721-0.626,0.854-1.404
		c0.038-0.209,0.076-0.284,0.209-0.284c0.152,0,0.152,0.151,0.152,0.341c0,0.437-0.152,1.728-0.247,2.107
		c-0.133,0.493-0.304,0.493-1.025,0.493c-1.423,0-2.468-0.038-3.284-0.057c-0.816-0.038-1.404-0.057-1.974-0.057
		c-0.209,0-0.626,0-1.082,0.019c-0.437,0-0.931,0.038-1.31,0.038c-0.247,0-0.38-0.057-0.38-0.189c0-0.096,0.076-0.152,0.304-0.152
		c0.285,0,0.513-0.038,0.684-0.076c0.379-0.076,0.475-0.493,0.551-1.044c0.095-0.797,0.095-2.297,0.095-4.043V49.021z"/>
	<path fill="#635D59" d="M208.372,49.021c0-2.885,0-3.417-0.038-4.024c-0.038-0.646-0.19-0.948-0.816-1.082
		c-0.151-0.038-0.475-0.057-0.74-0.057c-0.209,0-0.323-0.038-0.323-0.171s0.133-0.171,0.418-0.171c1.006,0,2.202,0.058,2.601,0.058
		c0.646,0,2.088-0.058,2.677-0.058c1.195,0,2.467,0.114,3.492,0.816c0.531,0.36,1.291,1.329,1.291,2.601
		c0,1.404-0.588,2.695-2.506,4.252c1.689,2.126,3,3.815,4.119,4.992c1.063,1.101,1.842,1.234,2.126,1.291
		c0.209,0.037,0.38,0.057,0.532,0.057c0.151,0,0.228,0.057,0.228,0.152c0,0.151-0.134,0.189-0.36,0.189h-1.804
		c-1.063,0-1.538-0.096-2.031-0.361c-0.816-0.436-1.538-1.328-2.601-2.79c-0.76-1.044-1.633-2.335-1.879-2.619
		c-0.096-0.114-0.209-0.133-0.342-0.133l-1.651-0.038c-0.095,0-0.151,0.038-0.151,0.152v0.266c0,1.765,0,3.265,0.094,4.062
		c0.058,0.551,0.172,0.968,0.74,1.044c0.285,0.038,0.703,0.076,0.931,0.076c0.151,0,0.228,0.057,0.228,0.152
		c0,0.133-0.133,0.189-0.379,0.189c-1.102,0-2.506-0.057-2.791-0.057c-0.36,0-1.557,0.057-2.315,0.057
		c-0.247,0-0.38-0.057-0.38-0.189c0-0.096,0.076-0.152,0.304-0.152c0.284,0,0.513-0.038,0.684-0.076
		c0.38-0.076,0.475-0.493,0.55-1.044c0.096-0.797,0.096-2.297,0.096-4.043V49.021z M210.613,50.521c0,0.209,0.037,0.284,0.17,0.342
		c0.398,0.133,0.969,0.189,1.443,0.189c0.759,0,1.006-0.076,1.348-0.322c0.569-0.418,1.119-1.291,1.119-2.848
		c0-2.695-1.783-3.475-2.904-3.475c-0.475,0-0.816,0.02-1.006,0.076c-0.133,0.038-0.17,0.114-0.17,0.266V50.521z"/>
	<path fill="#635D59" d="M221.375,57.638c-0.304-0.133-0.36-0.227-0.36-0.645c0-1.045,0.076-2.184,0.095-2.486
		c0.019-0.285,0.076-0.494,0.228-0.494c0.171,0,0.189,0.171,0.189,0.322c0,0.247,0.076,0.646,0.172,0.969
		c0.417,1.404,1.537,1.917,2.714,1.917c1.708,0,2.544-1.158,2.544-2.164c0-0.931-0.285-1.804-1.86-3.037l-0.873-0.683
		c-2.089-1.633-2.81-2.962-2.81-4.5c0-2.088,1.746-3.587,4.385-3.587c1.234,0,2.031,0.19,2.525,0.323
		c0.17,0.037,0.266,0.094,0.266,0.227c0,0.248-0.076,0.798-0.076,2.278c0,0.418-0.057,0.569-0.209,0.569
		c-0.133,0-0.189-0.113-0.189-0.342c0-0.17-0.096-0.759-0.494-1.252c-0.285-0.361-0.835-0.931-2.068-0.931
		c-1.405,0-2.26,0.816-2.26,1.955c0,0.873,0.438,1.538,2.013,2.733l0.531,0.398c2.297,1.728,3.113,3.037,3.113,4.841
		c0,1.101-0.418,2.411-1.784,3.303c-0.949,0.607-2.013,0.778-3.019,0.778C223.046,58.132,222.192,57.999,221.375,57.638z"/>
</g>
<g>
	<path fill="#88837F" d="M56.823,31.203c-0.547,0-1.039-0.054-1.477-0.16s-0.823-0.261-1.156-0.461
		c-0.333-0.2-0.617-0.445-0.852-0.734s-0.422-0.616-0.562-0.98c-0.115-0.292-0.197-0.614-0.246-0.969
		c-0.05-0.354-0.074-0.75-0.074-1.188v-6.156h1.914v5.984c0,0.739,0.088,1.317,0.266,1.734c0.198,0.464,0.487,0.798,0.867,1.004
		c0.38,0.206,0.828,0.309,1.344,0.309s0.963-0.103,1.344-0.309c0.38-0.206,0.669-0.54,0.867-1.004
		c0.177-0.417,0.266-0.995,0.266-1.734v-5.984h1.914v6.156c0,0.438-0.025,0.833-0.074,1.188c-0.05,0.354-0.132,0.677-0.246,0.969
		c-0.141,0.364-0.33,0.691-0.566,0.98c-0.237,0.289-0.526,0.534-0.867,0.734c-0.341,0.2-0.733,0.354-1.176,0.461
		C57.865,31.15,57.37,31.203,56.823,31.203z"/>
	<path fill="#88837F" d="M66.578,31.008V20.555h1.914v10.453H66.578z"/>
	<path fill="#88837F" d="M78.145,31.008h-1.914v-8.852h-3.375v-1.602h8.656v1.602h-3.367V31.008z"/>
	<path fill="#88837F" d="M89.752,28.453c0.192-0.567,0.332-0.973,0.418-1.215s0.267-0.738,0.543-1.488l1.938-5.195h2.023
		l-4.086,10.453h-1.719l-4.086-10.453h2.039l1.938,5.195c0.276,0.75,0.457,1.246,0.543,1.488s0.225,0.647,0.418,1.215H89.752z"/>
	<path fill="#88837F" d="M104.085,28.344h-3.937l-1.024,2.664h-2.039l4.148-10.453h1.75l4.148,10.453h-2.023L104.085,28.344z
		 M102.101,23.071c-0.365,1.094-0.691,2.007-0.978,2.741l-0.357,0.931h2.702l-0.357-0.931c-0.283-0.74-0.609-1.654-0.978-2.741
		H102.101z"/>
	<path fill="#88837F" d="M117.48,28.344h-3.937l-1.024,2.664h-2.039l4.148-10.453h1.75l4.148,10.453h-2.023L117.48,28.344z
		 M115.496,23.071c-0.365,1.094-0.691,2.007-0.978,2.741l-0.357,0.931h2.702l-0.357-0.931c-0.283-0.74-0.609-1.654-0.978-2.741
		H115.496z"/>
	<path fill="#88837F" d="M132.626,23.696c0,0.729-0.202,1.348-0.605,1.855c-0.404,0.508-1.027,0.884-1.871,1.129v0.031l3.109,4.297
		h-2.297l-2.844-4.047h-1.312v4.047h-1.914V20.555h3.18c0.525,0,1.016,0.03,1.469,0.09s0.841,0.149,1.164,0.27
		c0.614,0.234,1.088,0.582,1.422,1.043C132.459,22.418,132.626,22.997,132.626,23.696z M127.751,25.36
		c0.438,0,0.809-0.02,1.113-0.059s0.561-0.098,0.77-0.176c0.385-0.146,0.652-0.345,0.801-0.598s0.223-0.543,0.223-0.871
		c0-0.281-0.059-0.53-0.176-0.746s-0.316-0.387-0.598-0.512c-0.183-0.083-0.412-0.145-0.688-0.184
		c-0.276-0.039-0.617-0.059-1.023-0.059h-1.367v3.203H127.751z"/>
	<path fill="#88837F" d="M142.093,31.008h-1.914v-8.852h-3.375v-1.602h8.656v1.602h-3.367V31.008z"/>
	<path fill="#88837F" d="M157.417,20.555v1.039l-5.594,7.812h5.664v1.602h-8.211v-1.031l5.602-7.82h-5.461v-1.602H157.417z"/>
	<path fill="#88837F" d="M172.04,25.781c0,0.797-0.113,1.527-0.34,2.191s-0.559,1.235-0.992,1.715
		c-0.436,0.479-0.969,0.852-1.602,1.117s-1.354,0.398-2.16,0.398c-0.809,0-1.527-0.133-2.16-0.398s-1.168-0.638-1.602-1.117
		c-0.436-0.479-0.766-1.051-0.992-1.715s-0.34-1.395-0.34-2.191s0.113-1.527,0.34-2.191s0.557-1.235,0.992-1.715
		c0.434-0.479,0.969-0.852,1.602-1.117s1.352-0.398,2.16-0.398c0.807,0,1.527,0.133,2.16,0.398s1.166,0.638,1.602,1.117
		c0.434,0.479,0.766,1.051,0.992,1.715S172.04,24.985,172.04,25.781z M170.064,25.781c0-0.636-0.078-1.191-0.234-1.668
		s-0.373-0.874-0.648-1.191c-0.277-0.317-0.605-0.555-0.984-0.711c-0.381-0.156-0.797-0.234-1.25-0.234s-0.871,0.078-1.25,0.234
		c-0.381,0.156-0.709,0.394-0.984,0.711c-0.277,0.317-0.492,0.715-0.648,1.191s-0.234,1.032-0.234,1.668s0.078,1.191,0.234,1.668
		s0.371,0.872,0.648,1.188c0.275,0.315,0.604,0.552,0.984,0.711c0.379,0.159,0.797,0.238,1.25,0.238s0.869-0.079,1.25-0.238
		c0.379-0.159,0.707-0.396,0.984-0.711c0.275-0.315,0.492-0.711,0.648-1.188S170.064,26.417,170.064,25.781z"/>
	<path fill="#88837F" d="M184.685,23.696c0,0.729-0.201,1.348-0.605,1.855c-0.403,0.508-1.027,0.884-1.871,1.129v0.031l3.109,4.297
		h-2.297l-2.844-4.047h-1.312v4.047h-1.914V20.555h3.18c0.526,0,1.016,0.03,1.469,0.09s0.842,0.149,1.164,0.27
		c0.615,0.234,1.089,0.582,1.422,1.043C184.519,22.418,184.685,22.997,184.685,23.696z M179.81,25.36
		c0.438,0,0.809-0.02,1.113-0.059s0.562-0.098,0.77-0.176c0.386-0.146,0.652-0.345,0.801-0.598s0.223-0.543,0.223-0.871
		c0-0.281-0.059-0.53-0.176-0.746s-0.316-0.387-0.598-0.512c-0.182-0.083-0.411-0.145-0.688-0.184
		c-0.275-0.039-0.617-0.059-1.023-0.059h-1.367v3.203H179.81z"/>
	<path fill="#88837F" d="M196.378,27.016h-2.344v-1.602h4.258v5.273c-0.156,0.058-0.355,0.117-0.598,0.18s-0.514,0.118-0.812,0.168
		c-0.3,0.05-0.608,0.09-0.926,0.121c-0.318,0.031-0.633,0.047-0.945,0.047c-0.938,0-1.757-0.126-2.457-0.379
		c-0.701-0.253-1.284-0.608-1.75-1.066c-0.467-0.458-0.815-1.004-1.047-1.637c-0.232-0.633-0.348-1.332-0.348-2.098
		c0-0.542,0.061-1.059,0.184-1.551c0.122-0.492,0.302-0.948,0.539-1.367c0.236-0.419,0.524-0.798,0.863-1.137
		c0.338-0.339,0.725-0.628,1.16-0.867c0.435-0.239,0.911-0.423,1.43-0.551c0.518-0.128,1.074-0.191,1.668-0.191
		c0.525,0,1.025,0.038,1.5,0.113c0.474,0.075,0.861,0.168,1.164,0.277v1.625c-0.406-0.13-0.816-0.229-1.23-0.297
		s-0.832-0.102-1.254-0.102c-0.568,0-1.1,0.085-1.594,0.254c-0.495,0.169-0.924,0.419-1.285,0.75
		c-0.362,0.331-0.647,0.738-0.855,1.223c-0.209,0.484-0.312,1.044-0.312,1.68c0.005,1.234,0.328,2.16,0.969,2.777
		s1.549,0.926,2.727,0.926c0.219,0,0.445-0.012,0.68-0.035s0.439-0.054,0.617-0.09V27.016z"/>
</g>
</svg>
